<?xml version="1.0" standalone="no"?><!DOCTYPE svg PUBLIC "-//W3C//DTD SVG 1.1//EN" "http://www.w3.org/Graphics/SVG/1.1/DTD/svg11.dtd"><svg class="icon" height="512" viewBox="0 0 1024 1024" version="1.1" xmlns="http://www.w3.org/2000/svg"><path d="M746.50624 948.168704c-121.919488 0-221.104128-99.180544-221.104128-221.100032s99.18464-221.104128 221.104128-221.104128 221.100032 99.18464 221.100032 221.104128-99.178496 221.100032-221.100032 221.100032z m0-405.067776c-101.459968 0-183.990272 82.5344-183.990272 183.99232s82.532352 183.99232 183.990272 183.99232c101.459968 0 183.99232-82.5344 183.99232-183.99232s-82.532352-183.99232-183.99232-183.99232z m0 0M445.814784 531.050496c-131.395584 0-238.270464-106.876928-238.270464-238.272512 0-131.395584 106.87488-238.272512 238.270464-238.272512S684.087296 161.3824 684.087296 292.777984c0 131.395584-106.876928 238.272512-238.272512 238.272512z m0-439.406592c-110.911488 0-201.162752 90.222592-201.162752 201.156608s90.228736 201.162752 201.162752 201.162752 201.162752-90.228736 201.162752-201.162752-90.226688-201.156608-201.162752-201.156608z m0 0" fill="#FFA42F" /><path d="M554.225664 911.036416l-362.244096 0.024576c-52.647936-2.945024-80.431104-34.934784-82.561024-95.074304-0.41984-11.679744 6.903808-36.1984 10.022912-42.555392 61.97248-126.420992 187.897856-204.969984 328.62208-204.969984a388.83328 388.83328 0 0 1 78.770176 8.087552c7.796736-11.329536 16.553984-21.919744 25.954304-31.889408-33.59744-8.536064-68.70016-13.312-104.747008-13.312-155.000832 0-293.691392 86.491136-361.977856 225.757184-5.019648 10.289152-14.44864 40.845312-13.801472 60.188672 2.816 79.120384 45.692928 126.793728 118.626304 130.852864h406.976512c-15.855616-10.735616-30.429184-23.277568-43.640832-37.10976z m0 0M747.620352 880.826368l-10.221568-7.073792c-10.758144-7.473152-105.73824-74.369024-129.855488-125.679616-12.716032-21.424128-26.943488-76.449792 16.0768-120.385536 2.646016-2.648064 26.005504-25.260032 58.734592-25.260032 17.270784 0 40.845312 6.5536 63.361024 34.19136 13.357056-15.960064 34.758656-33.376256 64.548864-33.376256 13.43488 0 27.2384 3.637248 40.968192 10.86464 1.634304 0.83968 39.585792 21.248 45.273088 63.035392 2.996224 21.968896 3.735552 46.336-11.07968 75.554816-4.851712 9.576448-22.962176 32.385024-33.9968 42.827776-27.435008 26.001408-75.235328 66.84672-93.394944 78.548992l-10.41408 6.752256z m-65.241088-241.293312c-17.440768 0-32.159744 14.030848-32.309248 14.1824-33.570816 34.285568-10.665984 75.382784-9.674752 77.113344 15.638528 33.150976 75.534336 81.364992 107.593728 104.824832 19.61984-14.968832 54.601728-44.929024 77.959168-67.098624 9.125888-8.658944 24.070144-28.080128 26.396672-32.632832 10.735616-21.151744 9.551872-38.17472 7.424-53.76-3.096576-22.687744-25.534464-35.084288-25.755648-35.20512-8.361984-4.4032-16.355328-6.629376-23.72608-6.629376-29.814784 0-47.40096 37.107712-47.57504 37.505024l-15.388672 33.077248-17.713152-31.83616c-14.524416-26.228736-30.431232-39.540736-47.230976-39.540736z m0 0" fill="#FFA42F" /></svg>